<svg xmlns="http://www.w3.org/2000/svg" viewBox="0 0 512 512">
  <rect width="512" height="512" rx="64" fill="#059669"/>
  <g fill="#fff">
    <!-- Carrot icon -->
    <path d="M256 96c-8.8 0-16 7.2-16 16v32c0 8.8 7.2 16 16 16s16-7.2 16-16v-32c0-8.8-7.2-16-16-16z"/>
    <path d="M224 128c-8.8 0-16 7.2-16 16v16c0 8.8 7.2 16 16 16s16-7.2 16-16v-16c0-8.8-7.2-16-16-16z"/>
    <path d="M288 128c-8.8 0-16 7.2-16 16v16c0 8.8 7.2 16 16 16s16-7.2 16-16v-16c0-8.8-7.2-16-16-16z"/>
    <path d="M256 176c-44.2 0-80 35.8-80 80v160c0 44.2 35.8 80 80 80s80-35.8 80-80V256c0-44.2-35.8-80-80-80zm48 240c0 26.5-21.5 48-48 48s-48-21.5-48-48V256c0-26.5 21.5-48 48-48s48 21.5 48 48v160z"/>
    <circle cx="256" cy="304" r="16"/>
    <circle cx="256" cy="368" r="16"/>
  </g>
</svg>
